Linefont[dflt,max].ufo
<glyph name="neg.0" format="2">
	<advance width="200"/>
	<outline>
		<contour>
			<point x="-100" y="12.5" type="line"/>
			<point x="100" y="12.5" type="line"/>
			<point x="100" y="-12.5" type="line"/>
			<point x="-100" y="-12.5" type="line"/>
		</contour>
	</outline>
</glyph>
<glyph name="neg.-1" format="2">
	<advance width="200"/>
	<outline>
		<contour>
			<point x="-99.376" y="12.484" type="line"/>
			<point x="100.624" y="2.484" type="line"/>
			<point x="99.376" y="-22.484" type="line"/>
			<point x="-100.624" y="-12.484" type="line"/>
		</contour>
	</outline>
</glyph>
<glyph name="neg.-10" format="2">
	<advance width="200"/>
	<outline>
		<contour>
			<point x="-94.41" y="11.18" type="line"/>
			<point x="105.59" y="-88.82" type="line"/>
			<point x="94.41" y="-111.18" type="line"/>
			<point x="-105.59" y="-11.18" type="line"/>
		</contour>
	</outline>
</glyph>
<glyph name="neg.-100" format="2">
	<advance width="200"/>
	<outline>
		<contour>
			<point x="-87.743" y="2.451" type="line"/>
			<point x="112.257" y="-997.549" type="line"/>
			<point x="87.743" y="-1002.451" type="line"/>
			<point x="-112.257" y="-2.451" type="line"/>
		</contour>
	</outline>
</glyph>
<glyph name="neg.-102" format="2">
	<advance width="200"/>
	<outline>
		<contour>
			<point x="-87.734" y="2.405" type="line"/>
			<point x="112.266" y="-1017.595" type="line"/>
			<point x="87.734" y="-1022.405" type="line"/>
			<point x="-112.266" y="-2.405" type="line"/>
		</contour>
	</outline>
</glyph>
<glyph name="neg.-104" format="2">
	<advance width="200"/>
	<outline>
		<contour>
			<point x="-87.725" y="2.361" type="line"/>
			<point x="112.275" y="-1037.639" type="line"/>
			<point x="87.725" y="-1042.361" type="line"/>
			<point x="-112.275" y="-2.361" type="line"/>
		</contour>
	</outline>
</glyph>
<glyph name="neg.-105" format="2">
	<advance width="200"/>
	<outline>
		<contour>
			<point x="-87.721" y="2.339" type="line"/>
			<point x="112.279" y="-1047.661" type="line"/>
			<point x="87.721" y="-1052.339" type="line"/>
			<point x="-112.279" y="-2.339" type="line"/>
		</contour>
	</outline>
</glyph>
<glyph name="neg.-106" format="2">
	<advance width="200"/>
	<outline>
		<contour>
			<point x="-87.717" y="2.318" type="line"/>
			<point x="112.283" y="-1057.682" type="line"/>
			<point x="87.717" y="-1062.318" type="line"/>
			<point x="-112.283" y="-2.318" type="line"/>
		</contour>
	</outline>
</glyph>
<glyph name="neg.-108" format="2">
	<advance width="200"/>
	<outline>
		<contour>
			<point x="-87.709" y="2.276" type="line"/>
			<point x="112.291" y="-1077.724" type="line"/>
			<point x="87.709" y="-1082.276" type="line"/>
			<point x="-112.291" y="-2.276" type="line"/>
		</contour>
	</outline>
</glyph>
<glyph name="neg.-110" format="2">
	<advance width="200"/>
	<outline>
		<contour>
			<point x="-87.702" y="2.236" type="line"/>
			<point x="112.298" y="-1097.764" type="line"/>
			<point x="87.702" y="-1102.236" type="line"/>
			<point x="-112.298" y="-2.236" type="line"/>
		</contour>
	</outline>
</glyph>
<glyph name="neg.-113" format="2">
	<advance width="200"/>
	<outline>
		<contour>
			<point x="-87.691" y="2.179" type="line"/>
			<point x="112.309" y="-1127.821" type="line"/>
			<point x="87.691" y="-1132.179" type="line"/>
			<point x="-112.309" y="-2.179" type="line"/>
		</contour>
	</outline>
</glyph>
<glyph name="neg.-115" format="2">
	<advance width="200"/>
	<outline>
		<contour>
			<point x="-87.685" y="2.142" type="line"/>
			<point x="112.315" y="-1147.858" type="line"/>
			<point x="87.685" y="-1152.142" type="line"/>
			<point x="-112.315" y="-2.142" type="line"/>
		</contour>
	</outline>
</glyph>
<glyph name="neg.-116" format="2">
	<advance width="200"/>
	<outline>
		<contour>
			<point x="-87.682" y="2.124" type="line"/>
			<point x="112.318" y="-1157.876" type="line"/>
			<point x="87.682" y="-1162.124" type="line"/>
			<point x="-112.318" y="-2.124" type="line"/>
		</contour>
	</outline>
</glyph>
<glyph name="neg.-12" format="2">
	<advance width="200"/>
	<outline>
		<contour>
			<point x="-93.569" y="10.719" type="line"/>
			<point x="106.431" y="-109.281" type="line"/>
			<point x="93.569" y="-130.719" type="line"/>
			<point x="-106.431" y="-10.719" type="line"/>
		</contour>
	</outline>
</glyph>
<glyph name="neg.-122" format="2">
	<advance width="200"/>
	<outline>
		<contour>
			<point x="-87.665" y="2.022" type="line"/>
			<point x="112.335" y="-1217.978" type="line"/>
			<point x="87.665" y="-1222.022" type="line"/>
			<point x="-112.335" y="-2.022" type="line"/>
		</contour>
	</outline>
</glyph>
<glyph name="neg.-123" format="2">
	<advance width="200"/>
	<outline>
		<contour>
			<point x="-87.662" y="2.006" type="line"/>
			<point x="112.338" y="-1227.994" type="line"/>
			<point x="87.662" y="-1232.006" type="line"/>
			<point x="-112.338" y="-2.006" type="line"/>
		</contour>
	</outline>
</glyph>
<glyph name="neg.-127" format="2">
	<advance width="200"/>
	<outline>
		<contour>
			<point x="-87.652" y="1.945" type="line"/>
			<point x="112.348" y="-1268.055" type="line"/>
			<point x="87.652" y="-1271.945" type="line"/>
			<point x="-112.348" y="-1.945" type="line"/>
		</contour>
	</outline>
</glyph>
<glyph name="neg.-13" format="2">
	<advance width="200"/>
	<outline>
		<contour>
			<point x="-93.188" y="10.481" type="line"/>
			<point x="106.812" y="-119.519" type="line"/>
			<point x="93.188" y="-140.481" type="line"/>
			<point x="-106.812" y="-10.481" type="line"/>
		</contour>
	</outline>
</glyph>
<glyph name="neg.-14" format="2">
	<advance width="200"/>
	<outline>
		<contour>
			<point x="-92.832" y="10.24" type="line"/>
			<point x="107.168" y="-129.76" type="line"/>
			<point x="92.832" y="-150.24" type="line"/>
			<point x="-107.168" y="-10.24" type="line"/>
		</contour>
	</outline>
</glyph>
<glyph name="neg.-16" format="2">
	<advance width="200"/>
	<outline>
		<contour>
			<point x="-92.191" y="9.761" type="line"/>
			<point x="107.809" y="-150.239" type="line"/>
			<point x="92.191" y="-169.761" type="line"/>
			<point x="-107.809" y="-9.761" type="line"/>
		</contour>
	</outline>
</glyph>
<glyph name="neg.-17" format="2">
	<advance width="200"/>
	<outline>
		<contour>
			<point x="-91.904" y="9.524" type="line"/>
			<point x="108.096" y="-160.476" type="line"/>
			<point x="91.904" y="-179.524" type="line"/>
			<point x="-108.096" y="-9.524" type="line"/>
		</contour>
	</outline>
</glyph>
<glyph name="neg.-19" format="2">
	<advance width="200"/>
	<outline>
		<contour>
			<point x="-91.391" y="9.062" type="line"/>
			<point x="108.609" y="-180.938" type="line"/>
			<point x="91.391" y="-199.062" type="line"/>
			<point x="-108.609" y="-9.062" type="line"/>
		</contour>
	</outline>
</glyph>
<glyph name="neg.-2" format="2">
	<advance width="200"/>
	<outline>
		<contour>
			<point x="-98.756" y="12.438" type="line"/>
			<point x="101.244" y="-7.562" type="line"/>
			<point x="98.756" y="-32.438" type="line"/>
			<point x="-101.244" y="-12.438" type="line"/>
		</contour>
	</outline>
</glyph>
<glyph name="neg.-21" format="2">
	<advance width="200"/>
	<outline>
		<contour>
			<point x="-90.948" y="8.621" type="line"/>
			<point x="109.052" y="-201.379" type="line"/>
			<point x="90.948" y="-218.621" type="line"/>
			<point x="-109.052" y="-8.621" type="line"/>
		</contour>
	</outline>
</glyph>
<glyph name="neg.-23" format="2">
	<advance width="200"/>
	<outline>
		<contour>
			<point x="-90.567" y="8.202" type="line"/>
			<point x="109.433" y="-221.798" type="line"/>
			<point x="90.567" y="-238.202" type="line"/>
			<point x="-109.433" y="-8.202" type="line"/>
		</contour>
	</outline>
</glyph>
<glyph name="neg.-24" format="2">
	<advance width="200"/>
	<outline>
		<contour>
			<point x="-90.397" y="8.002" type="line"/>
			<point x="109.603" y="-231.998" type="line"/>
			<point x="90.397" y="-248.002" type="line"/>
			<point x="-109.603" y="-8.002" type="line"/>
		</contour>
	</outline>
</glyph>
<glyph name="neg.-25" format="2">
	<advance width="200"/>
	<outline>
		<contour>
			<point x="-90.239" y="7.809" type="line"/>
			<point x="109.761" y="-242.191" type="line"/>
			<point x="90.239" y="-257.809" type="line"/>
			<point x="-109.761" y="-7.809" type="line"/>
		</contour>
	</outline>
</glyph>
<glyph name="neg.-26" format="2">
	<advance width="200"/>
	<outline>
		<contour>
			<point x="-90.092" y="7.621" type="line"/>
			<point x="109.908" y="-252.379" type="line"/>
			<point x="90.092" y="-267.621" type="line"/>
			<point x="-109.908" y="-7.621" type="line"/>
		</contour>
	</outline>
</glyph>
<glyph name="neg.-28" format="2">
	<advance width="200"/>
	<outline>
		<contour>
			<point x="-89.828" y="7.265" type="line"/>
			<point x="110.172" y="-272.735" type="line"/>
			<point x="89.828" y="-287.265" type="line"/>
			<point x="-110.172" y="-7.265" type="line"/>
		</contour>
	</outline>
</glyph>
<glyph name="neg.-29" format="2">
	<advance width="200"/>
	<outline>
		<contour>
			<point x="-89.71" y="7.097" type="line"/>
			<point x="110.29" y="-282.903" type="line"/>
			<point x="89.71" y="-297.097" type="line"/>
			<point x="-110.29" y="-7.097" type="line"/>
		</contour>
	</outline>
</glyph>
<glyph name="neg.-32" format="2">
	<advance width="200"/>
	<outline>
		<contour>
			<point x="-89.4" y="6.625" type="line"/>
			<point x="110.6" y="-313.375" type="line"/>
			<point x="89.4" y="-326.625" type="line"/>
			<point x="-110.6" y="-6.625" type="line"/>
		</contour>
	</outline>
</glyph>
<glyph name="neg.-33" format="2">
	<advance width="200"/>
	<outline>
		<contour>
			<point x="-89.31" y="6.479" type="line"/>
			<point x="110.69" y="-323.521" type="line"/>
			<point x="89.31" y="-336.479" type="line"/>
			<point x="-110.69" y="-6.479" type="line"/>
		</contour>
	</outline>
</glyph>
<glyph name="neg.-34" format="2">
	<advance width="200"/>
	<outline>
		<contour>
			<point x="-89.226" y="6.338" type="line"/>
			<point x="110.774" y="-333.662" type="line"/>
			<point x="89.226" y="-346.338" type="line"/>
			<point x="-110.774" y="-6.338" type="line"/>
		</contour>
	</outline>
</glyph>
<glyph name="neg.-35" format="2">
	<advance width="200"/>
	<outline>
		<contour>
			<point x="-89.147" y="6.202" type="line"/>
			<point x="110.853" y="-343.798" type="line"/>
			<point x="89.147" y="-356.202" type="line"/>
			<point x="-110.853" y="-6.202" type="line"/>
		</contour>
	</outline>
</glyph>
<glyph name="neg.-36" format="2">
	<advance width="200"/>
	<outline>
		<contour>
			<point x="-89.073" y="6.071" type="line"/>
			<point x="110.927" y="-353.929" type="line"/>
			<point x="89.073" y="-366.071" type="line"/>
			<point x="-110.927" y="-6.071" type="line"/>
		</contour>
	</outline>
</glyph>
<glyph name="neg.-37" format="2">
	<advance width="200"/>
	<outline>
		<contour>
			<point x="-89.004" y="5.944" type="line"/>
			<point x="110.996" y="-364.056" type="line"/>
			<point x="89.004" y="-375.944" type="line"/>
			<point x="-110.996" y="-5.944" type="line"/>
		</contour>
	</outline>
</glyph>
<glyph name="neg.-38" format="2">
	<advance width="200"/>
	<outline>
		<contour>
			<point x="-88.939" y="5.822" type="line"/>
			<point x="111.061" y="-374.178" type="line"/>
			<point x="88.939" y="-385.822" type="line"/>
			<point x="-111.061" y="-5.822" type="line"/>
		</contour>
	</outline>
</glyph>
<glyph name="neg.-42" format="2">
	<advance width="200"/>
	<outline>
		<contour>
			<point x="-88.714" y="5.374" type="line"/>
			<point x="111.286" y="-414.626" type="line"/>
			<point x="88.714" y="-425.374" type="line"/>
			<point x="-111.286" y="-5.374" type="line"/>
		</contour>
	</outline>
</glyph>
<glyph name="neg.-44" format="2">
	<advance width="200"/>
	<outline>
		<contour>
			<point x="-88.62" y="5.173" type="line"/>
			<point x="111.38" y="-434.827" type="line"/>
			<point x="88.62" y="-445.173" type="line"/>
			<point x="-111.38" y="-5.173" type="line"/>
		</contour>
	</outline>
</glyph>
<glyph name="neg.-45" format="2">
	<advance width="200"/>
	<outline>
		<contour>
			<point x="-88.577" y="5.077" type="line"/>
			<point x="111.423" y="-444.923" type="line"/>
			<point x="88.577" y="-455.077" type="line"/>
			<point x="-111.423" y="-5.077" type="line"/>
		</contour>
	</outline>
</glyph>
<glyph name="neg.-50" format="2">
	<advance width="200"/>
	<outline>
		<contour>
			<point x="-88.394" y="4.642" type="line"/>
			<point x="111.606" y="-495.358" type="line"/>
			<point x="88.394" y="-504.642" type="line"/>
			<point x="-111.606" y="-4.642" type="line"/>
		</contour>
	</outline>
</glyph>
<glyph name="neg.-55" format="2">
	<advance width="200"/>
	<outline>
		<contour>
			<point x="-88.253" y="4.272" type="line"/>
			<point x="111.747" y="-545.728" type="line"/>
			<point x="88.253" y="-554.272" type="line"/>
			<point x="-111.747" y="-4.272" type="line"/>
		</contour>
	</outline>
</glyph>
<glyph name="neg.-6" format="2">
	<advance width="200"/>
	<outline>
		<contour>
			<point x="-96.408" y="11.973" type="line"/>
			<point x="103.592" y="-48.027" type="line"/>
			<point x="96.408" y="-71.973" type="line"/>
			<point x="-103.592" y="-11.973" type="line"/>
		</contour>
	</outline>
</glyph>
<glyph name="neg.-61" format="2">
	<advance width="200"/>
	<outline>
		<contour>
			<point x="-88.122" y="3.894" type="line"/>
			<point x="111.878" y="-606.106" type="line"/>
			<point x="88.122" y="-613.894" type="line"/>
			<point x="-111.878" y="-3.894" type="line"/>
		</contour>
	</outline>
</glyph>
<glyph name="neg.-62" format="2">
	<advance width="200"/>
	<outline>
		<contour>
			<point x="-88.104" y="3.838" type="line"/>
			<point x="111.896" y="-616.162" type="line"/>
			<point x="88.104" y="-623.838" type="line"/>
			<point x="-111.896" y="-3.838" type="line"/>
		</contour>
	</outline>
</glyph>
<glyph name="neg.-64" format="2">
	<advance width="200"/>
	<outline>
		<contour>
			<point x="-88.069" y="3.728" type="line"/>
			<point x="111.931" y="-636.272" type="line"/>
			<point x="88.069" y="-643.728" type="line"/>
			<point x="-111.931" y="-3.728" type="line"/>
		</contour>
	</outline>
</glyph>
<glyph name="neg.-65" format="2">
	<advance width="200"/>
	<outline>
		<contour>
			<point x="-88.053" y="3.676" type="line"/>
			<point x="111.947" y="-646.324" type="line"/>
			<point x="88.053" y="-653.676" type="line"/>
			<point x="-111.947" y="-3.676" type="line"/>
		</contour>
	</outline>
</glyph>
<glyph name="neg.-67" format="2">
	<advance width="200"/>
	<outline>
		<contour>
			<point x="-88.022" y="3.575" type="line"/>
			<point x="111.978" y="-666.425" type="line"/>
			<point x="88.022" y="-673.575" type="line"/>
			<point x="-111.978" y="-3.575" type="line"/>
		</contour>
	</outline>
</glyph>
<glyph name="neg.-74" format="2">
	<advance width="200"/>
	<outline>
		<contour>
			<point x="-87.933" y="3.261" type="line"/>
			<point x="112.067" y="-736.739" type="line"/>
			<point x="87.933" y="-743.261" type="line"/>
			<point x="-112.067" y="-3.261" type="line"/>
		</contour>
	</outline>
</glyph>
<glyph name="neg.-76" format="2">
	<advance width="200"/>
	<outline>
		<contour>
			<point x="-87.912" y="3.181" type="line"/>
			<point x="112.088" y="-756.819" type="line"/>
			<point x="87.912" y="-763.181" type="line"/>
			<point x="-112.088" y="-3.181" type="line"/>
		</contour>
	</outline>
</glyph>
<glyph name="neg.-77" format="2">
	<advance width="200"/>
	<outline>
		<contour>
			<point x="-87.901" y="3.142" type="line"/>
			<point x="112.099" y="-766.858" type="line"/>
			<point x="87.901" y="-773.142" type="line"/>
			<point x="-112.099" y="-3.142" type="line"/>
		</contour>
	</outline>
</glyph>
<glyph name="neg.-8" format="2">
	<advance width="200"/>
	<outline>
		<contour>
			<point x="-95.358" y="11.606" type="line"/>
			<point x="104.642" y="-68.394" type="line"/>
			<point x="95.358" y="-91.606" type="line"/>
			<point x="-104.642" y="-11.606" type="line"/>
		</contour>
	</outline>
</glyph>
<glyph name="neg.-84" format="2">
	<advance width="200"/>
	<outline>
		<contour>
			<point x="-87.84" y="2.895" type="line"/>
			<point x="112.16" y="-837.105" type="line"/>
			<point x="87.84" y="-842.895" type="line"/>
			<point x="-112.16" y="-2.895" type="line"/>
		</contour>
	</outline>
</glyph>
<glyph name="neg.-85" format="2">
	<advance width="200"/>
	<outline>
		<contour>
			<point x="-87.832" y="2.863" type="line"/>
			<point x="112.168" y="-847.137" type="line"/>
			<point x="87.832" y="-852.863" type="line"/>
			<point x="-112.168" y="-2.863" type="line"/>
		</contour>
	</outline>
</glyph>
<glyph name="neg.-86" format="2">
	<advance width="200"/>
	<outline>
		<contour>
			<point x="-87.825" y="2.831" type="line"/>
			<point x="112.175" y="-857.169" type="line"/>
			<point x="87.825" y="-862.831" type="line"/>
			<point x="-112.175" y="-2.831" type="line"/>
		</contour>
	</outline>
</glyph>
<glyph name="neg.-88" format="2">
	<advance width="200"/>
	<outline>
		<contour>
			<point x="-87.811" y="2.77" type="line"/>
			<point x="112.189" y="-877.23" type="line"/>
			<point x="87.811" y="-882.77" type="line"/>
			<point x="-112.189" y="-2.77" type="line"/>
		</contour>
	</outline>
</glyph>
<glyph name="neg.-89" format="2">
	<advance width="200"/>
	<outline>
		<contour>
			<point x="-87.804" y="2.741" type="line"/>
			<point x="112.196" y="-887.259" type="line"/>
			<point x="87.804" y="-892.741" type="line"/>
			<point x="-112.196" y="-2.741" type="line"/>
		</contour>
	</outline>
</glyph>
<glyph name="neg.-93" format="2">
	<advance width="200"/>
	<outline>
		<contour>
			<point x="-87.779" y="2.628" type="line"/>
			<point x="112.221" y="-927.372" type="line"/>
			<point x="87.779" y="-932.628" type="line"/>
			<point x="-112.221" y="-2.628" type="line"/>
		</contour>
	</outline>
</glyph>
<glyph name="neg.-94" format="2">
	<advance width="200"/>
	<outline>
		<contour>
			<point x="-87.774" y="2.601" type="line"/>
			<point x="112.226" y="-937.399" type="line"/>
			<point x="87.774" y="-942.601" type="line"/>
			<point x="-112.226" y="-2.601" type="line"/>
		</contour>
	</outline>
</glyph>
<glyph name="neg.-96" format="2">
	<advance width="200"/>
	<outline>
		<contour>
			<point x="-87.763" y="2.549" type="line"/>
			<point x="112.237" y="-957.451" type="line"/>
			<point x="87.763" y="-962.549" type="line"/>
			<point x="-112.237" y="-2.549" type="line"/>
		</contour>
	</outline>
</glyph>
<glyph name="neg.-98" format="2">
	<advance width="200"/>
	<outline>
		<contour>
			<point x="-87.752" y="2.5" type="line"/>
			<point x="112.248" y="-977.5" type="line"/>
			<point x="87.752" y="-982.5" type="line"/>
			<point x="-112.248" y="-2.5" type="line"/>
		</contour>
	</outline>
</glyph>
<glyph name="neg.-99" format="2">
	<advance width="200"/>
	<outline>
		<contour>
			<point x="-87.748" y="2.475" type="line"/>
			<point x="112.252" y="-987.525" type="line"/>
			<point x="87.748" y="-992.475" type="line"/>
			<point x="-112.252" y="-2.475" type="line"/>
		</contour>
	</outline>
</glyph>
<glyph name="pos.101" format="2">
	<advance width="200"/>
	<outline>
		<contour>
			<point x="-112.262" y="2.428" type="line"/>
			<point x="87.738" y="1012.428" type="line"/>
			<point x="112.262" y="1007.572" type="line"/>
			<point x="-87.738" y="-2.428" type="line"/>
		</contour>
	</outline>
</glyph>
<glyph name="pos.103" format="2">
	<advance width="200"/>
	<outline>
		<contour>
			<point x="-112.271" y="2.383" type="line"/>
			<point x="87.729" y="1032.383" type="line"/>
			<point x="112.271" y="1027.617" type="line"/>
			<point x="-87.729" y="-2.383" type="line"/>
		</contour>
	</outline>
</glyph>
<glyph name="pos.107" format="2">
	<advance width="200"/>
	<outline>
		<contour>
			<point x="-112.287" y="2.297" type="line"/>
			<point x="87.713" y="1072.297" type="line"/>
			<point x="112.287" y="1067.703" type="line"/>
			<point x="-87.713" y="-2.297" type="line"/>
		</contour>
	</outline>
</glyph>
<glyph name="pos.109" format="2">
	<advance width="200"/>
	<outline>
		<contour>
			<point x="-112.295" y="2.256" type="line"/>
			<point x="87.705" y="1092.256" type="line"/>
			<point x="112.295" y="1087.744" type="line"/>
			<point x="-87.705" y="-2.256" type="line"/>
		</contour>
	</outline>
</glyph>
<glyph name="pos.11" format="2">
	<advance width="200"/>
	<outline>
		<contour>
			<point x="-106.024" y="10.953" type="line"/>
			<point x="93.976" y="120.953" type="line"/>
			<point x="106.024" y="99.047" type="line"/>
			<point x="-93.976" y="-10.953" type="line"/>
		</contour>
	</outline>
</glyph>
<glyph name="pos.111" format="2">
	<advance width="200"/>
	<outline>
		<contour>
			<point x="-112.302" y="2.217" type="line"/>
			<point x="87.698" y="1112.217" type="line"/>
			<point x="112.302" y="1107.783" type="line"/>
			<point x="-87.698" y="-2.217" type="line"/>
		</contour>
	</outline>
</glyph>
<glyph name="pos.112" format="2">
	<advance width="200"/>
	<outline>
		<contour>
			<point x="-112.305" y="2.197" type="line"/>
			<point x="87.695" y="1122.197" type="line"/>
			<point x="112.305" y="1117.803" type="line"/>
			<point x="-87.695" y="-2.197" type="line"/>
		</contour>
	</outline>
</glyph>
<glyph name="pos.114" format="2">
	<advance width="200"/>
	<outline>
		<contour>
			<point x="-112.312" y="2.16" type="line"/>
			<point x="87.688" y="1142.16" type="line"/>
			<point x="112.312" y="1137.84" type="line"/>
			<point x="-87.688" y="-2.16" type="line"/>
		</contour>
	</outline>
</glyph>
<glyph name="pos.117" format="2">
	<advance width="200"/>
	<outline>
		<contour>
			<point x="-112.321" y="2.106" type="line"/>
			<point x="87.679" y="1172.106" type="line"/>
			<point x="112.321" y="1167.894" type="line"/>
			<point x="-87.679" y="-2.106" type="line"/>
		</contour>
	</outline>
</glyph>
<glyph name="pos.118" format="2">
	<advance width="200"/>
	<outline>
		<contour>
			<point x="-112.324" y="2.089" type="line"/>
			<point x="87.676" y="1182.089" type="line"/>
			<point x="112.324" y="1177.911" type="line"/>
			<point x="-87.676" y="-2.089" type="line"/>
		</contour>
	</outline>
</glyph>
<glyph name="pos.119" format="2">
	<advance width="200"/>
	<outline>
		<contour>
			<point x="-112.327" y="2.072" type="line"/>
			<point x="87.673" y="1192.072" type="line"/>
			<point x="112.327" y="1187.928" type="line"/>
			<point x="-87.673" y="-2.072" type="line"/>
		</contour>
	</outline>
</glyph>
<glyph name="pos.120" format="2">
	<advance width="200"/>
	<outline>
		<contour>
			<point x="-112.33" y="2.055" type="line"/>
			<point x="87.67" y="1202.055" type="line"/>
			<point x="112.33" y="1197.945" type="line"/>
			<point x="-87.67" y="-2.055" type="line"/>
		</contour>
	</outline>
</glyph>
<glyph name="pos.124" format="2">
	<advance width="200"/>
	<outline>
		<contour>
			<point x="-112.341" y="1.99" type="line"/>
			<point x="87.659" y="1241.99" type="line"/>
			<point x="112.341" y="1238.01" type="line"/>
			<point x="-87.659" y="-1.99" type="line"/>
		</contour>
	</outline>
</glyph>
<glyph name="pos.125" format="2">
	<advance width="200"/>
	<outline>
		<contour>
			<point x="-112.343" y="1.975" type="line"/>
			<point x="87.657" y="1251.975" type="line"/>
			<point x="112.343" y="1248.025" type="line"/>
			<point x="-87.657" y="-1.975" type="line"/>
		</contour>
	</outline>
</glyph>
<glyph name="pos.126" format="2">
	<advance width="200"/>
	<outline>
		<contour>
			<point x="-112.345" y="1.96" type="line"/>
			<point x="87.655" y="1261.96" type="line"/>
			<point x="112.345" y="1258.04" type="line"/>
			<point x="-87.655" y="-1.96" type="line"/>
		</contour>
	</outline>
</glyph>
<glyph name="pos.15" format="2">
	<advance width="200"/>
	<outline>
		<contour>
			<point x="-107.5" y="10" type="line"/>
			<point x="92.5" y="160" type="line"/>
			<point x="107.5" y="140" type="line"/>
			<point x="-92.5" y="-10" type="line"/>
		</contour>
	</outline>
</glyph>
<glyph name="pos.18" format="2">
	<advance width="200"/>
	<outline>
		<contour>
			<point x="-108.362" y="9.291" type="line"/>
			<point x="91.638" y="189.291" type="line"/>
			<point x="108.362" y="170.709" type="line"/>
			<point x="-91.638" y="-9.291" type="line"/>
		</contour>
	</outline>
</glyph>
<glyph name="pos.20" format="2">
	<advance width="200"/>
	<outline>
		<contour>
			<point x="-108.839" y="8.839" type="line"/>
			<point x="91.161" y="208.839" type="line"/>
			<point x="108.839" y="191.161" type="line"/>
			<point x="-91.161" y="-8.839" type="line"/>
		</contour>
	</outline>
</glyph>
<glyph name="pos.22" format="2">
	<advance width="200"/>
	<outline>
		<contour>
			<point x="-109.249" y="8.408" type="line"/>
			<point x="90.751" y="228.408" type="line"/>
			<point x="109.249" y="211.592" type="line"/>
			<point x="-90.751" y="-8.408" type="line"/>
		</contour>
	</outline>
</glyph>
<glyph name="pos.27" format="2">
	<advance width="200"/>
	<outline>
		<contour>
			<point x="-110.044" y="7.44" type="line"/>
			<point x="89.956" y="277.44" type="line"/>
			<point x="110.044" y="262.56" type="line"/>
			<point x="-89.956" y="-7.44" type="line"/>
		</contour>
	</outline>
</glyph>
<glyph name="pos.3" format="2">
	<advance width="200"/>
	<outline>
		<contour>
			<point x="-101.854" y="12.362" type="line"/>
			<point x="98.146" y="42.362" type="line"/>
			<point x="101.854" y="17.638" type="line"/>
			<point x="-98.146" y="-12.362" type="line"/>
		</contour>
	</outline>
</glyph>
<glyph name="pos.30" format="2">
	<advance width="200"/>
	<outline>
		<contour>
			<point x="-110.401" y="6.934" type="line"/>
			<point x="89.599" y="306.934" type="line"/>
			<point x="110.401" y="293.066" type="line"/>
			<point x="-89.599" y="-6.934" type="line"/>
		</contour>
	</outline>
</glyph>
<glyph name="pos.31" format="2">
	<advance width="200"/>
	<outline>
		<contour>
			<point x="-110.504" y="6.777" type="line"/>
			<point x="89.496" y="316.777" type="line"/>
			<point x="110.504" y="303.223" type="line"/>
			<point x="-89.496" y="-6.777" type="line"/>
		</contour>
	</outline>
</glyph>
<glyph name="pos.39" format="2">
	<advance width="200"/>
	<outline>
		<contour>
			<point x="-111.123" y="5.704" type="line"/>
			<point x="88.877" y="395.704" type="line"/>
			<point x="111.123" y="384.296" type="line"/>
			<point x="-88.877" y="-5.704" type="line"/>
		</contour>
	</outline>
</glyph>
<glyph name="pos.4" format="2">
	<advance width="200"/>
	<outline>
		<contour>
			<point x="-102.451" y="12.257" type="line"/>
			<point x="97.549" y="52.257" type="line"/>
			<point x="102.451" y="27.743" type="line"/>
			<point x="-97.549" y="-12.257" type="line"/>
		</contour>
	</outline>
</glyph>
<glyph name="pos.40" format="2">
	<advance width="200"/>
	<outline>
		<contour>
			<point x="-111.18" y="5.59" type="line"/>
			<point x="88.82" y="405.59" type="line"/>
			<point x="111.18" y="394.41" type="line"/>
			<point x="-88.82" y="-5.59" type="line"/>
		</contour>
	</outline>
</glyph>
<glyph name="pos.41" format="2">
	<advance width="200"/>
	<outline>
		<contour>
			<point x="-111.235" y="5.48" type="line"/>
			<point x="88.765" y="415.48" type="line"/>
			<point x="111.235" y="404.52" type="line"/>
			<point x="-88.765" y="-5.48" type="line"/>
		</contour>
	</outline>
</glyph>
<glyph name="pos.43" format="2">
	<advance width="200"/>
	<outline>
		<contour>
			<point x="-111.334" y="5.272" type="line"/>
			<point x="88.666" y="435.272" type="line"/>
			<point x="111.334" y="424.728" type="line"/>
			<point x="-88.666" y="-5.272" type="line"/>
		</contour>
	</outline>
</glyph>
<glyph name="pos.46" format="2">
	<advance width="200"/>
	<outline>
		<contour>
			<point x="-111.463" y="4.984" type="line"/>
			<point x="88.537" y="464.984" type="line"/>
			<point x="111.463" y="455.016" type="line"/>
			<point x="-88.537" y="-4.984" type="line"/>
		</contour>
	</outline>
</glyph>
<glyph name="pos.47" format="2">
	<advance width="200"/>
	<outline>
		<contour>
			<point x="-111.502" y="4.894" type="line"/>
			<point x="88.498" y="474.894" type="line"/>
			<point x="111.502" y="465.106" type="line"/>
			<point x="-88.498" y="-4.894" type="line"/>
		</contour>
	</outline>
</glyph>
<glyph name="pos.48" format="2">
	<advance width="200"/>
	<outline>
		<contour>
			<point x="-111.538" y="4.808" type="line"/>
			<point x="88.462" y="484.808" type="line"/>
			<point x="111.538" y="475.192" type="line"/>
			<point x="-88.462" y="-4.808" type="line"/>
		</contour>
	</outline>
</glyph>
<glyph name="pos.49" format="2">
	<advance width="200"/>
	<outline>
		<contour>
			<point x="-111.573" y="4.724" type="line"/>
			<point x="88.427" y="494.724" type="line"/>
			<point x="111.573" y="485.276" type="line"/>
			<point x="-88.427" y="-4.724" type="line"/>
		</contour>
	</outline>
</glyph>
<glyph name="pos.5" format="2">
	<advance width="200"/>
	<outline>
		<contour>
			<point x="-103.032" y="12.127" type="line"/>
			<point x="96.968" y="62.127" type="line"/>
			<point x="103.032" y="37.873" type="line"/>
			<point x="-96.968" y="-12.127" type="line"/>
		</contour>
	</outline>
</glyph>
<glyph name="pos.51" format="2">
	<advance width="200"/>
	<outline>
		<contour>
			<point x="-111.637" y="4.564" type="line"/>
			<point x="88.363" y="514.564" type="line"/>
			<point x="111.637" y="505.436" type="line"/>
			<point x="-88.363" y="-4.564" type="line"/>
		</contour>
	</outline>
</glyph>
<glyph name="pos.52" format="2">
	<advance width="200"/>
	<outline>
		<contour>
			<point x="-111.667" y="4.487" type="line"/>
			<point x="88.333" y="524.487" type="line"/>
			<point x="111.667" y="515.513" type="line"/>
			<point x="-88.333" y="-4.487" type="line"/>
		</contour>
	</outline>
</glyph>
<glyph name="pos.53" format="2">
	<advance width="200"/>
	<outline>
		<contour>
			<point x="-111.695" y="4.413" type="line"/>
			<point x="88.305" y="534.413" type="line"/>
			<point x="111.695" y="525.587" type="line"/>
			<point x="-88.305" y="-4.413" type="line"/>
		</contour>
	</outline>
</glyph>
<glyph name="pos.54" format="2">
	<advance width="200"/>
	<outline>
		<contour>
			<point x="-111.722" y="4.341" type="line"/>
			<point x="88.278" y="544.341" type="line"/>
			<point x="111.722" y="535.659" type="line"/>
			<point x="-88.278" y="-4.341" type="line"/>
		</contour>
	</outline>
</glyph>
<glyph name="pos.56" format="2">
	<advance width="200"/>
	<outline>
		<contour>
			<point x="-111.772" y="4.204" type="line"/>
			<point x="88.228" y="564.204" type="line"/>
			<point x="111.772" y="555.796" type="line"/>
			<point x="-88.228" y="-4.204" type="line"/>
		</contour>
	</outline>
</glyph>
<glyph name="pos.57" format="2">
	<advance width="200"/>
	<outline>
		<contour>
			<point x="-111.795" y="4.139" type="line"/>
			<point x="88.205" y="574.139" type="line"/>
			<point x="111.795" y="565.861" type="line"/>
			<point x="-88.205" y="-4.139" type="line"/>
		</contour>
	</outline>
</glyph>
<glyph name="pos.58" format="2">
	<advance width="200"/>
	<outline>
		<contour>
			<point x="-111.817" y="4.075" type="line"/>
			<point x="88.183" y="584.075" type="line"/>
			<point x="111.817" y="575.925" type="line"/>
			<point x="-88.183" y="-4.075" type="line"/>
		</contour>
	</outline>
</glyph>
<glyph name="pos.59" format="2">
	<advance width="200"/>
	<outline>
		<contour>
			<point x="-111.838" y="4.013" type="line"/>
			<point x="88.162" y="594.013" type="line"/>
			<point x="111.838" y="585.987" type="line"/>
			<point x="-88.162" y="-4.013" type="line"/>
		</contour>
	</outline>
</glyph>
<glyph name="pos.60" format="2">
	<advance width="200"/>
	<outline>
		<contour>
			<point x="-111.859" y="3.953" type="line"/>
			<point x="88.141" y="603.953" type="line"/>
			<point x="111.859" y="596.047" type="line"/>
			<point x="-88.141" y="-3.953" type="line"/>
		</contour>
	</outline>
</glyph>
<glyph name="pos.63" format="2">
	<advance width="200"/>
	<outline>
		<contour>
			<point x="-111.914" y="3.782" type="line"/>
			<point x="88.086" y="633.782" type="line"/>
			<point x="111.914" y="626.218" type="line"/>
			<point x="-88.086" y="-3.782" type="line"/>
		</contour>
	</outline>
</glyph>
<glyph name="pos.66" format="2">
	<advance width="200"/>
	<outline>
		<contour>
			<point x="-111.963" y="3.625" type="line"/>
			<point x="88.037" y="663.625" type="line"/>
			<point x="111.963" y="656.375" type="line"/>
			<point x="-88.037" y="-3.625" type="line"/>
		</contour>
	</outline>
</glyph>
<glyph name="pos.68" format="2">
	<advance width="200"/>
	<outline>
		<contour>
			<point x="-111.992" y="3.527" type="line"/>
			<point x="88.008" y="683.527" type="line"/>
			<point x="111.992" y="676.473" type="line"/>
			<point x="-88.008" y="-3.527" type="line"/>
		</contour>
	</outline>
</glyph>
<glyph name="pos.69" format="2">
	<advance width="200"/>
	<outline>
		<contour>
			<point x="-112.006" y="3.48" type="line"/>
			<point x="87.994" y="693.48" type="line"/>
			<point x="112.006" y="686.52" type="line"/>
			<point x="-87.994" y="-3.48" type="line"/>
		</contour>
	</outline>
</glyph>
<glyph name="pos.7" format="2">
	<advance width="200"/>
	<outline>
		<contour>
			<point x="-104.129" y="11.798" type="line"/>
			<point x="95.871" y="81.798" type="line"/>
			<point x="104.129" y="58.202" type="line"/>
			<point x="-95.871" y="-11.798" type="line"/>
		</contour>
	</outline>
</glyph>
<glyph name="pos.70" format="2">
	<advance width="200"/>
	<outline>
		<contour>
			<point x="-112.019" y="3.434" type="line"/>
			<point x="87.981" y="703.434" type="line"/>
			<point x="112.019" y="696.566" type="line"/>
			<point x="-87.981" y="-3.434" type="line"/>
		</contour>
	</outline>
</glyph>
<glyph name="pos.71" format="2">
	<advance width="200"/>
	<outline>
		<contour>
			<point x="-112.032" y="3.389" type="line"/>
			<point x="87.968" y="713.389" type="line"/>
			<point x="112.032" y="706.611" type="line"/>
			<point x="-87.968" y="-3.389" type="line"/>
		</contour>
	</outline>
</glyph>
<glyph name="pos.72" format="2">
	<advance width="200"/>
	<outline>
		<contour>
			<point x="-112.044" y="3.346" type="line"/>
			<point x="87.956" y="723.346" type="line"/>
			<point x="112.044" y="716.654" type="line"/>
			<point x="-87.956" y="-3.346" type="line"/>
		</contour>
	</outline>
</glyph>
<glyph name="pos.73" format="2">
	<advance width="200"/>
	<outline>
		<contour>
			<point x="-112.056" y="3.303" type="line"/>
			<point x="87.944" y="733.303" type="line"/>
			<point x="112.056" y="726.697" type="line"/>
			<point x="-87.944" y="-3.303" type="line"/>
		</contour>
	</outline>
</glyph>
<glyph name="pos.75" format="2">
	<advance width="200"/>
	<outline>
		<contour>
			<point x="-112.078" y="3.221" type="line"/>
			<point x="87.922" y="753.221" type="line"/>
			<point x="112.078" y="746.779" type="line"/>
			<point x="-87.922" y="-3.221" type="line"/>
		</contour>
	</outline>
</glyph>
<glyph name="pos.78" format="2">
	<advance width="200"/>
	<outline>
		<contour>
			<point x="-112.108" y="3.105" type="line"/>
			<point x="87.892" y="783.105" type="line"/>
			<point x="112.108" y="776.895" type="line"/>
			<point x="-87.892" y="-3.105" type="line"/>
		</contour>
	</outline>
</glyph>
<glyph name="pos.79" format="2">
	<advance width="200"/>
	<outline>
		<contour>
			<point x="-112.118" y="3.068" type="line"/>
			<point x="87.882" y="793.068" type="line"/>
			<point x="112.118" y="786.932" type="line"/>
			<point x="-87.882" y="-3.068" type="line"/>
		</contour>
	</outline>
</glyph>
<glyph name="pos.80" format="2">
	<advance width="200"/>
	<outline>
		<contour>
			<point x="-112.127" y="3.032" type="line"/>
			<point x="87.873" y="803.032" type="line"/>
			<point x="112.127" y="796.968" type="line"/>
			<point x="-87.873" y="-3.032" type="line"/>
		</contour>
	</outline>
</glyph>
<glyph name="pos.81" format="2">
	<advance width="200"/>
	<outline>
		<contour>
			<point x="-112.136" y="2.996" type="line"/>
			<point x="87.864" y="812.996" type="line"/>
			<point x="112.136" y="807.004" type="line"/>
			<point x="-87.864" y="-2.996" type="line"/>
		</contour>
	</outline>
</glyph>
<glyph name="pos.82" format="2">
	<advance width="200"/>
	<outline>
		<contour>
			<point x="-112.144" y="2.962" type="line"/>
			<point x="87.856" y="822.962" type="line"/>
			<point x="112.144" y="817.038" type="line"/>
			<point x="-87.856" y="-2.962" type="line"/>
		</contour>
	</outline>
</glyph>
<glyph name="pos.83" format="2">
	<advance width="200"/>
	<outline>
		<contour>
			<point x="-112.152" y="2.928" type="line"/>
			<point x="87.848" y="832.928" type="line"/>
			<point x="112.152" y="827.072" type="line"/>
			<point x="-87.848" y="-2.928" type="line"/>
		</contour>
	</outline>
</glyph>
<glyph name="pos.87" format="2">
	<advance width="200"/>
	<outline>
		<contour>
			<point x="-112.182" y="2.801" type="line"/>
			<point x="87.818" y="872.801" type="line"/>
			<point x="112.182" y="867.199" type="line"/>
			<point x="-87.818" y="-2.801" type="line"/>
		</contour>
	</outline>
</glyph>
<glyph name="pos.9" format="2">
	<advance width="200"/>
	<outline>
		<contour>
			<point x="-105.13" y="11.399" type="line"/>
			<point x="94.87" y="101.399" type="line"/>
			<point x="105.13" y="78.601" type="line"/>
			<point x="-94.87" y="-11.399" type="line"/>
		</contour>
	</outline>
</glyph>
<glyph name="pos.90" format="2">
	<advance width="200"/>
	<outline>
		<contour>
			<point x="-112.202" y="2.712" type="line"/>
			<point x="87.798" y="902.712" type="line"/>
			<point x="112.202" y="897.288" type="line"/>
			<point x="-87.798" y="-2.712" type="line"/>
		</contour>
	</outline>
</glyph>
<glyph name="pos.91" format="2">
	<advance width="200"/>
	<outline>
		<contour>
			<point x="-112.209" y="2.683" type="line"/>
			<point x="87.791" y="912.683" type="line"/>
			<point x="112.209" y="907.317" type="line"/>
			<point x="-87.791" y="-2.683" type="line"/>
		</contour>
	</outline>
</glyph>
<glyph name="pos.92" format="2">
	<advance width="200"/>
	<outline>
		<contour>
			<point x="-112.215" y="2.655" type="line"/>
			<point x="87.785" y="922.655" type="line"/>
			<point x="112.215" y="917.345" type="line"/>
			<point x="-87.785" y="-2.655" type="line"/>
		</contour>
	</outline>
</glyph>
<glyph name="pos.97" format="2">
	<advance width="200"/>
	<outline>
		<contour>
			<point x="-112.242" y="2.524" type="line"/>
			<point x="87.758" y="972.524" type="line"/>
			<point x="112.242" y="967.476" type="line"/>
			<point x="-87.758" y="-2.524" type="line"/>
		</contour>
	</outline>
</glyph>
